<?xml version="1.0" standalone="no"?>
<!DOCTYPE svg PUBLIC "-//W3C//DTD SVG 20010904//EN"
 "http://www.w3.org/TR/2001/REC-SVG-20010904/DTD/svg10.dtd">
<svg version="1.0" xmlns="http://www.w3.org/2000/svg"
 width="200.000000pt" height="60.000000pt" viewBox="0 0 200.000000 60.000000"
 preserveAspectRatio="xMidYMid meet">

<g transform="translate(0.000000,60.000000) scale(0.100000,-0.100000)"
fill="#000000" stroke="none">
<path d="M225 480 c3 -5 11 -10 16 -10 6 0 7 5 4 10 -3 6 -11 10 -16 10 -6 0
-7 -4 -4 -10z"/>
<path d="M160 460 c0 -5 5 -10 11 -10 5 0 7 5 4 10 -3 6 -8 10 -11 10 -2 0 -4
-4 -4 -10z"/>
<path d="M290 450 c20 -13 33 -13 25 0 -3 6 -14 10 -23 10 -15 0 -15 -2 -2
-10z"/>
<path d="M210 442 c0 -5 7 -13 16 -16 10 -4 14 -1 12 6 -5 15 -28 23 -28 10z"/>
<path d="M360 430 c8 -5 22 -10 30 -10 13 0 13 1 0 10 -8 5 -22 10 -30 10 -13
0 -13 -1 0 -10z"/>
<path d="M272 418 c3 -7 13 -15 22 -16 12 -3 17 1 14 10 -3 7 -13 15 -22 16
-12 3 -17 -1 -14 -10z"/>
<path d="M155 410 c3 -5 11 -10 16 -10 6 0 7 5 4 10 -3 6 -11 10 -16 10 -6 0
-7 -4 -4 -10z"/>
<path d="M440 410 c20 -13 43 -13 35 0 -3 6 -16 10 -28 10 -18 0 -19 -2 -7
-10z"/>
<path d="M342 398 c3 -7 18 -14 34 -16 28 -2 28 -2 10 13 -24 18 -49 20 -44 3z"/>
<path d="M212 389 c2 -7 10 -15 17 -17 8 -3 12 1 9 9 -2 7 -10 15 -17 17 -8 3
-12 -1 -9 -9z"/>
<path d="M548 393 c7 -3 16 -2 19 1 4 3 -2 6 -13 5 -11 0 -14 -3 -6 -6z"/>
<path d="M1030 315 l0 -85 51 0 c79 0 89 10 89 83 0 36 -5 68 -12 75 -7 7 -38
12 -70 12 l-58 0 0 -85z m98 3 c3 -39 0 -47 -17 -53 -32 -10 -41 2 -41 56 0
49 1 50 28 47 25 -3 27 -7 30 -50z"/>
<path d="M1207 393 c-4 -3 -7 -39 -7 -79 0 -56 3 -73 16 -78 27 -10 110 -6
122 6 7 7 12 39 12 73 0 34 -5 66 -12 73 -13 13 -120 17 -131 5z m101 -75 c3
-43 1 -48 -22 -54 -37 -9 -46 2 -46 57 l0 50 33 -3 c31 -3 32 -5 35 -50z"/>
<path d="M1420 386 c0 -8 10 -16 23 -18 20 -3 22 -9 25 -71 2 -58 6 -68 20
-65 14 3 18 17 20 71 3 66 3 67 31 67 27 0 30 -4 41 -52 17 -70 27 -88 50 -88
15 0 22 11 31 45 13 51 19 50 34 -3 8 -29 16 -37 34 -37 21 0 26 8 42 65 24
84 24 100 0 100 -14 0 -22 -12 -30 -45 -6 -25 -13 -45 -16 -45 -3 0 -10 20
-16 46 -10 37 -15 45 -33 42 -16 -2 -23 -13 -30 -45 -5 -24 -12 -43 -16 -43
-4 0 -11 19 -16 43 l-9 42 -93 3 c-75 2 -92 0 -92 -12z"/>
<path d="M1810 381 c-5 -11 -10 -41 -10 -66 0 -74 11 -85 80 -85 69 0 80 11
80 85 0 74 -11 85 -80 85 -48 0 -61 -4 -70 -19z m104 -27 c10 -26 7 -69 -6
-82 -17 -17 -55 -15 -62 4 -19 48 -2 94 34 94 16 0 30 -7 34 -16z"/>
<path d="M434 375 c22 -17 42 -19 50 -6 7 11 -17 21 -47 21 -22 -1 -22 -1 -3
-15z"/>
<path d="M272 368 c3 -7 15 -15 27 -16 16 -3 22 1 19 10 -3 7 -15 15 -27 16
-16 3 -22 -1 -19 -10z"/>
<path d="M525 370 c3 -5 17 -10 31 -10 13 0 24 5 24 10 0 6 -14 10 -31 10 -17
0 -28 -4 -24 -10z"/>
<path d="M623 373 c9 -2 23 -2 30 0 6 3 -1 5 -18 5 -16 0 -22 -2 -12 -5z"/>
<path d="M162 358 c2 -6 10 -14 16 -16 7 -2 10 2 6 12 -7 18 -28 22 -22 4z"/>
<path d="M345 360 c-11 -18 5 -30 38 -30 l32 1 -24 19 c-26 22 -37 25 -46 10z"/>
<path d="M630 350 c-12 -8 -10 -10 10 -10 14 0 32 5 40 10 12 8 10 10 -10 10
-14 0 -32 -5 -40 -10z"/>
<path d="M725 350 c-3 -5 -2 -10 4 -10 5 0 13 5 16 10 3 6 2 10 -4 10 -5 0
-13 -4 -16 -10z"/>
<path d="M210 340 c0 -5 9 -14 20 -20 16 -8 20 -8 20 4 0 7 -7 17 -16 20 -21
8 -24 8 -24 -4z"/>
<path d="M420 340 c0 -5 8 -13 18 -19 16 -9 16 -10 -1 -16 -9 -4 -31 -2 -47 5
-40 17 -57 4 -31 -24 12 -12 18 -25 15 -29 -14 -14 20 -38 50 -36 52 3 64 0
62 -18 -1 -14 7 -18 33 -18 19 0 36 6 39 13 2 7 -5 12 -18 12 -18 0 -20 3 -11
14 15 18 52 9 44 -10 -7 -19 41 -19 57 1 9 11 10 15 1 15 -8 0 -10 8 -6 20 5
15 2 20 -11 20 -14 0 -15 3 -6 12 18 18 15 28 -8 28 -11 0 -20 5 -20 10 0 6 5
10 10 10 6 0 10 5 10 10 0 13 -67 13 -75 0 -3 -6 1 -13 11 -17 16 -6 16 -7 -1
-19 -13 -10 -23 -10 -38 -3 -15 8 -16 13 -7 19 7 4 9 13 6 19 -9 13 -76 15
-76 1z m30 -70 c11 -6 12 -12 4 -20 -7 -7 -19 -6 -38 4 -28 14 -26 17 14 25 3
0 12 -4 20 -9z"/>
<path d="M740 330 c-8 -5 -12 -11 -9 -14 2 -3 11 -1 19 4 8 5 12 11 9 14 -2 3
-11 1 -19 -4z"/>
<path d="M276 315 c6 -15 42 -30 51 -21 10 9 -18 36 -38 36 -12 0 -16 -5 -13
-15z"/>
<path d="M643 323 c-18 -7 -16 -23 3 -23 14 0 14 -3 4 -15 -18 -22 -7 -28 24
-14 26 12 35 29 15 29 -8 0 -8 5 1 15 10 13 9 15 -11 14 -13 0 -30 -3 -36 -6z"/>
<path d="M180 301 c0 -5 5 -13 10 -16 6 -3 10 -2 10 4 0 5 -4 13 -10 16 -5 3
-10 2 -10 -4z"/>
<path d="M740 295 c-10 -12 -10 -15 0 -15 7 0 10 -7 6 -16 -6 -15 -4 -15 10
-3 11 9 12 15 5 17 -9 3 -9 7 0 18 7 8 7 14 1 14 -5 0 -15 -7 -22 -15z"/>
<path d="M236 276 c8 -20 34 -29 34 -12 0 8 -7 17 -16 20 -22 9 -24 8 -18 -8z"/>
<path d="M309 250 c24 -21 41 -26 41 -12 0 15 -24 32 -44 32 -20 -1 -20 -1 3
-20z"/>
<path d="M670 255 c-20 -24 -5 -28 21 -6 19 16 20 20 8 21 -9 0 -22 -7 -29
-15z"/>
<path d="M1370 250 c0 -15 5 -20 18 -18 9 2 17 10 17 18 0 8 -8 16 -17 18 -13
2 -18 -3 -18 -18z"/>
<path d="M205 240 c3 -5 11 -10 16 -10 6 0 7 5 4 10 -3 6 -11 10 -16 10 -6 0
-7 -4 -4 -10z"/>
<path d="M690 230 c-8 -5 -11 -12 -7 -16 4 -4 15 0 24 9 18 18 8 23 -17 7z"/>
<path d="M273 213 c9 -9 20 -13 24 -9 4 4 1 11 -7 16 -25 16 -35 11 -17 -7z"/>
<path d="M339 200 c25 -22 41 -26 41 -10 0 11 -33 30 -52 30 -7 -1 -3 -9 11
-20z"/>
<path d="M400 200 c0 -14 49 -32 62 -24 7 5 4 12 -7 21 -22 15 -55 17 -55 3z"/>
<path d="M700 200 c-9 -6 -10 -10 -3 -10 6 0 15 5 18 10 8 12 4 12 -15 0z"/>
<path d="M230 196 c0 -2 8 -10 18 -17 15 -13 16 -12 3 4 -13 16 -21 21 -21 13z"/>
<path d="M610 190 c-8 -5 -12 -12 -8 -15 9 -9 48 4 48 16 0 12 -21 11 -40 -1z"/>
<path d="M290 175 c0 -2 10 -10 23 -16 20 -11 21 -11 8 4 -13 16 -31 23 -31
12z"/>
<path d="M360 161 c0 -10 24 -21 43 -21 7 0 3 7 -7 15 -22 17 -36 19 -36 6z"/>
<path d="M510 160 c0 -5 13 -10 29 -10 17 0 33 5 36 10 4 6 -8 10 -29 10 -20
0 -36 -4 -36 -10z"/>
<path d="M630 160 c-13 -8 -13 -10 2 -10 9 0 20 5 23 10 8 13 -5 13 -25 0z"/>
<path d="M435 150 c3 -5 17 -10 31 -10 13 0 24 5 24 10 0 6 -14 10 -31 10 -17
0 -28 -4 -24 -10z"/>
<path d="M550 130 c0 -5 6 -10 14 -10 8 0 18 5 21 10 3 6 -3 10 -14 10 -12 0
-21 -4 -21 -10z"/>
<path d="M330 126 c0 -2 7 -7 16 -10 8 -3 12 -2 9 4 -6 10 -25 14 -25 6z"/>
<path d="M408 113 c7 -3 16 -2 19 1 4 3 -2 6 -13 5 -11 0 -14 -3 -6 -6z"/>
<path d="M483 113 c9 -2 23 -2 30 0 6 3 -1 5 -18 5 -16 0 -22 -2 -12 -5z"/>
</g>
</svg>
